<svg fill="#fff" height="800" width="800" xmlns="http://www.w3.org/2000/svg" viewBox="0 0 512 512" stroke="#fff"><path d="M511.708 188.996L480.151 58.294a47.815 47.815 0 00-46.474-36.326H79.626c-21.821 0-40.885 14.754-46.378 35.952L.316 188.901A10.465 10.465 0 000 191.448c0 24.572 12.44 46.288 31.347 59.197v191.777c0 26.252 21.357 47.61 47.608 47.61H433.05c26.249 0 47.604-21.358 47.604-47.61V250.599C499.563 237.684 512 215.991 512 191.448c0-.826-.098-1.65-.292-2.452zm-78.03-146.13c12.422 0 23.194 8.42 26.177 20.404L488.28 181H388.19L370.052 42.866h63.626zm-167.229 0h82.525l18.138 138.133H266.449V42.866zm101.027 159.031c-4.877 22.982-25.494 40.29-50.124 40.29-24.476 0-44.967-17.309-49.813-40.29h99.937zM161.773 42.866h83.778v138.133h-100.9l17.122-138.133zm82.684 159.031c-4.861 22.982-25.413 40.29-49.962 40.29-24.627 0-45.245-17.309-50.122-40.29h100.084zM53.498 63.089c3.086-11.908 13.83-20.223 26.129-20.223h61.089l-17.122 138.133H23.851l29.647-117.91zM21.994 201.897h99.297c-4.831 22.982-25.256 40.29-49.654 40.29-24.395.001-44.811-17.31-49.643-40.29zm437.761 240.526c0 14.729-11.98 26.712-26.707 26.712H78.955c-14.728-.001-26.71-11.984-26.71-26.712V260.397a71.387 71.387 0 0019.392 2.689c25.903 0 48.64-13.82 61.225-34.472 12.668 20.653 35.557 34.472 61.633 34.472 26.018 0 48.854-13.82 61.494-34.472 12.613 20.653 35.401 34.472 61.364 34.472 26.078 0 48.967-13.82 61.635-34.472 12.584 20.653 35.321 34.472 61.225 34.472 6.774 0 13.325-.961 19.542-2.72v182.057zm-19.542-200.235c-24.397 0-44.823-17.309-49.654-40.29h99.444c-4.844 22.98-25.322 40.29-49.79 40.29z"/><path d="M427.016 356.602h-46.804c-5.771 0-10.449 4.678-10.449 10.449s4.678 10.449 10.449 10.449h35.045c-4.66 18.201-21.201 31.696-40.835 31.696-23.239 0-42.145-18.906-42.145-42.145s18.906-42.145 42.145-42.145a42.16 42.16 0 0127.314 10.046c4.394 3.742 10.988 3.215 14.73-1.179 3.743-4.393 3.215-10.988-1.179-14.73a63.07 63.07 0 00-40.864-15.036c-34.762 0-63.043 28.281-63.043 63.043s28.281 63.043 63.043 63.043 63.043-28.281 63.043-63.043c-.001-5.77-4.679-10.448-10.45-10.448zm-192.123 65.132h-4.678c-5.771 0-10.449 4.678-10.449 10.449s4.678 10.449 10.449 10.449h4.678c5.771 0 10.449-4.678 10.449-10.449s-4.678-10.449-10.449-10.449zm-38.481 0H94.92c-5.771 0-10.449 4.678-10.449 10.449s4.678 10.449 10.449 10.449h101.492c5.771 0 10.449-4.678 10.449-10.449s-4.678-10.449-10.449-10.449z"/></svg>