<svg version="1.0" xmlns="http://www.w3.org/2000/svg" width="4533.333" height="3042.667" viewBox="0 0 3400 2282"><g transform="matrix(.1 0 0 -.1 0 2282)"><linearGradient id="a" x1="0%" y1="0%" x2="100%" y2="100%"><stop offset="0%" stop-color="#fad961"/><stop offset="85%" stop-color="#ab9144"/></linearGradient><path d="M19030 20814c-19-2-80-9-135-14-263-28-601-102-869-192-1083-361-1989-1204-2435-2264-142-340-271-840-283-1099-3-68-2-70 22-73 53-6 470-93 496-102 15-6 28-9 29-8 2 2 13 73 25 158 62 446 200 869 400 1223 514 908 1371 1532 2380 1731 229 45 394 60 675 60 338 1 547-23 852-99 1047-260 1924-1006 2343-1990 324-761 372-1618 135-2400-146-481-414-961-711-1276-79-83-93-104-104-149-23-96-10-154 69-305 115-223 257-427 405-582 65-69 67-73 41-73-15 0-73 9-128 21-284 57-490 144-732 307-159 108-173 113-266 113h-80l-177-95c-345-186-647-295-1012-365-184-36-329-51-567-59-128-5-236-11-239-15-3-3-1-50 5-104 5-54 13-159 16-233s8-154 11-177l5-43h79c126 0 425 19 560 36 415 52 829 175 1234 368 76 36 143 66 147 66 5 0 60-29 123-65 286-164 594-269 906-311 148-19 511-22 613-5 244 42 387 204 387 442 0 178-72 291-250 394-114 65-183 120-285 226-88 92-172 203-230 305l-18 31 75 99c414 551 663 1112 782 1764 50 275 58 394 53 780-5 378-12 457-72 752-173 848-629 1634-1282 2208-647 569-1397 901-2258 1000-92 11-671 22-735 14z" fill="url(#a)"/><path d="M14365 16734c-681-68-1244-247-1769-562-987-593-1673-1557-1896-2666-62-305-75-439-75-791 0-340 9-471 50-710 110-637 380-1255 776-1773 44-57 79-109 79-116 0-16-111-178-180-262-80-97-214-210-342-289-178-110-235-184-259-333-38-230 106-441 336-493 81-19 569-19 675-1 338 58 626 160 909 322 49 27 94 50 102 50 7 0 71-27 141-60 437-205 817-317 1278-376 171-21 587-30 780-15 1210 91 2314 717 3025 1716 334 468 564 1015 669 1585 56 307 61 371 60 745-1 388-9 480-69 780-104 525-297 990-599 1445-156 234-288 393-515 621-342 341-642 560-1043 760-430 215-859 344-1348 404-128 16-680 29-785 19zm725-579c793-102 1506-454 2066-1020 503-509 825-1134 949-1846 59-340 61-816 5-1146-149-865-603-1632-1290-2180-663-529-1461-782-2338-742-546 25-995 159-1570 469-81 44-100 50-151 50-76 0-99-11-266-122-160-106-305-180-451-231-104-36-287-80-383-92l-54-6 73 78c157 167 272 331 399 568l81 150v84c0 105-21 154-92 214-56 47-244 293-335 437-281 447-445 907-520 1460-22 167-25 617-5 780 56 455 164 824 349 1195 82 165 127 242 224 385 362 536 860 959 1439 1225 315 144 684 247 1035 289l160 20c68 10 556-4 675-19z" fill="url(#a)"/><path d="M12880 13139c-121-24-255-133-312-256-58-122-50-277 20-406 51-95 181-191 293-216 193-45 416 63 499 241 156 336-136 708-500 637zm1701 0c-78-15-169-65-230-126-218-219-151-584 132-719 317-150 685 122 629 463-32 195-187 353-372 383-74 11-97 11-159-1zm1670-5c-176-47-301-184-331-364-40-237 128-472 367-510 128-21 252 9 345 83 73 57 93 82 133 162 86 170 45 378-99 513-123 115-269 156-415 116zm-1446-6410c-425-64-751-227-1031-515-316-326-484-736-484-1184 0-272 55-506 176-749 89-177 169-290 314-440 238-248 552-419 893-488 97-20 142-23 332-22 242 0 326 12 516 74 587 192 1043 710 1155 1315 29 151 26 511-4 649-149 676-667 1193-1337 1336-78 17-144 22-300 25-110 2-213 1-230-1zm435-783c47-12 126-42 175-66 265-128 447-362 507-653 26-127 21-327-12-447-70-257-252-476-495-596-156-76-229-92-420-92-145-1-168 2-248 26-533 163-818 704-643 1220 110 321 384 559 719 623 106 20 310 12 417-15zm6420 782c-160-21-373-84-500-148-295-148-538-413-664-724-112-276-123-680-26-971 147-445 568-768 1110-854 52-8 154-20 225-25 149-11 217-27 318-75 223-103 368-300 384-521 18-245-95-440-318-549-132-65-199-80-349-80-138 0-220 16-328 65-194 87-303 226-334 424l-12 75h-767l6-72c20-228 54-360 140-533 75-152 132-230 249-343 259-249 633-384 1061-383 698 1 1251 417 1386 1042 20 89 23 134 23 314 0 179-3 225-22 312-76 352-254 623-528 806-238 158-492 236-836 257-174 10-178 11-278 42-219 69-375 225-415 415-30 143-11 313 50 442 69 145 234 264 425 306 172 38 393 13 545-61 172-84 260-213 290-426l6-48h761l-7 83c-51 623-455 1073-1083 1208-74 15-143 21-287 24-104 2-206 1-225-2zm4390 0c-350-35-624-114-898-258-544-288-939-803-1097-1430-60-239-70-336-70-670 0-328 9-414 65-643 83-340 252-677 462-927 354-419 870-693 1453-771 153-21 466-20 628 1 337 44 649 161 943 353 129 85 217 154 306 240l57 55-266 272-266 273-81-70c-463-400-1118-489-1685-227-286 133-548 397-684 690-78 166-127 341-148 528-15 137-7 455 16 581 120 669 579 1130 1220 1225 123 18 374 21 490 5 288-40 569-169 795-365l75-65 267 267 268 268-43 43c-130 134-357 292-577 401-242 120-485 191-752 220-89 10-395 13-478 4zM2030 6320v-350l253-2 252-3 3-1597 2-1598h-540v-700h1840v700h-530v3200h510v700H2030v-350zm2570-1950V2070h770l2 1631 3 1631 1140-1631 1139-1631h776v4600h-760l-2-1635-3-1636-1145 1635-1145 1635-387 1h-388V4370zm4877 2294c-4-4-7-1040-7-2301V2069l903 4c775 4 915 7 997 21 293 50 566 151 740 274 136 96 266 240 344 383 144 263 184 636 99 929-43 149-111 263-239 399-133 141-260 211-494 272l-45 11 90 32c263 94 429 234 544 456 98 191 127 333 118 589-6 184-25 285-77 416-124 314-317 514-610 633-198 81-341 122-545 155-123 19-177 21-970 24-462 3-844 1-848-3zm1638-764c236-23 373-79 508-209 100-96 141-204 140-371-1-150-30-239-105-325-101-115-296-202-523-235-38-5-258-10-487-10h-418v573c0 316 3 577 7 580 10 11 758 8 878-3zm137-1935c166-25 292-78 411-174 111-89 156-182 164-341 10-180-32-299-145-409-48-48-92-79-152-108-178-88-332-105-895-101l-400 3-3 573-2 572h462c355 0 486-4 560-15zm5988 2355v-350h960V2070h760l2 1948 3 1947 483 3 482 2v700h-2690v-350zm11460-38v-387l360-568c198-313 360-570 360-573 0-2-162-4-360-4h-360V2070h760l2 958 3 957 220 2 220 3 595-956c327-526 600-958 605-960 6-2 208-3 451-2l441 3-619 990c-340 544-618 992-618 995 0 4 44 21 98 39 480 163 782 482 879 931 14 68 18 129 18 305-1 196-3 230-24 315-88 358-298 642-579 784-100 50-305 128-416 156-281 73-388 80-1283 80h-753v-388zm1679-398c211-31 372-104 492-223 75-75 103-135 120-257 10-74 2-174-21-255-15-55-80-148-140-202-96-87-293-167-450-184l-56-5-343 548c-189 302-351 559-359 572l-14 22h332c250 0 359-4 439-16zM13460 2450v-380h3030v760h-3030v-380z" fill="url(#a)"/></g></svg>