<svg xmlns="http://www.w3.org/2000/svg" viewBox="0 0 375 375"><path d="M222.53 29.25h83.63c22.49 0 38.82 5.64 48.99 16.9 10.17 11.27 15.25 29.64 15.25 55.1v13.96c0 30.12-10.53 48.12-31.59 54 12.92 3.43 22.01 11.39 27.28 23.88 5.26 12.49 7.9 29.02 7.9 49.59 0 33.55-4.91 58.96-14.72 76.23-9.81 17.27-27.52 25.9-53.12 25.9h-83.63V29.25zm72.86 118.66c5.26 0 8.85-2.02 10.77-6.06 1.91-4.04 2.87-9.73 2.87-17.08v-31.6c0-10.29-4.43-15.43-13.28-15.43h-12.92v70.17h12.56zm17.59 117.92v-39.31c0-9.55-1.38-16.77-4.13-21.67-2.75-4.9-7.6-7.35-14.54-7.35h-11.48v91.47l6.1.37c16.03 0 24.05-7.83 24.05-23.51zm-112 78.98H.11V29.25h200.88v315.56zM23.36 318.37h23.93v-70.74H23.36v70.74zm30.04 0h118.47v-70.74H53.4v70.74zm30.05-192.35h88.42V56.76H74.14s-20.74 5.17-20.74 51.5 14.62 51.5 14.62 51.5H53.4v71.97h118.47v-71.97H83.45s-9.31-1.9-9.31-15.78c0-13.88 5.59-17.96 9.31-17.96z" fill="#e6e6dd"/></svg>