<svg id="Capa_1" data-name="Capa 1" xmlns="http://www.w3.org/2000/svg" viewBox="0 0 375 150.24"><defs><style>.cls-1{fill:#fff;stroke-width:0}</style></defs><path class="cls-1" d="M88.57 1.37h35.18c9.46 0 16.33 2.64 20.61 7.9 4.28 5.27 6.42 13.85 6.42 25.76v6.52c0 14.08-4.43 22.49-13.29 25.24 5.44 1.6 9.26 5.32 11.48 11.16 2.21 5.84 3.32 13.57 3.32 23.18 0 15.68-2.06 27.56-6.19 35.63-4.13 8.07-11.58 12.11-22.35 12.11H88.57V1.37zm30.65 55.47c2.21 0 3.72-.94 4.53-2.83.81-1.89 1.21-4.55 1.21-7.98V31.26c0-4.81-1.86-7.21-5.59-7.21h-5.44v32.8h5.29zm7.4 55.11V93.58c0-4.46-.58-7.84-1.74-10.13-1.16-2.29-3.2-3.43-6.12-3.43h-4.83v42.76l2.57.17c6.74 0 10.12-3.66 10.12-10.99zm37.75 27.39c-5.44-7.27-8.15-17.48-8.15-30.65V38.46c0-12.71 2.72-22.29 8.15-28.76 5.44-6.47 13.39-9.7 23.86-9.7s18.42 3.24 23.86 9.7c5.44 6.47 8.15 16.05 8.15 28.76v70.23c0 13.28-2.72 23.52-8.15 30.74-5.44 7.21-13.39 10.82-23.86 10.82s-18.42-3.63-23.86-10.9zm28.54-19.66c.8-2.29 1.21-5.49 1.21-9.62V37.95c0-3.2-.38-5.81-1.13-7.81-.76-2-2.29-3-4.61-3-4.33 0-6.49 3.72-6.49 11.16v71.95c0 4.24.45 7.44 1.36 9.62.91 2.17 2.57 3.26 4.98 3.26s3.87-1.14 4.68-3.43zm45.3 29.19V29.71h-15.4V1.37h56.78V29.7h-15.4v119.17h-25.97zm50.28-8.58c-5.23-6.64-7.85-17.34-7.85-32.11V93.76h25.52v18.37c0 7.33 2.06 10.99 6.19 10.99 2.31 0 3.93-.77 4.83-2.32.91-1.55 1.36-4.15 1.36-7.81 0-4.81-.5-8.78-1.51-11.93-1.01-3.15-2.29-5.78-3.85-7.9s-4.36-5.41-8.38-9.87l-11.17-12.71c-8.66-9.62-12.99-20.26-12.99-31.94 0-12.59 2.54-22.18 7.63-28.76C293.35 3.3 300.78.01 310.54.01c11.68 0 20.08 3.52 25.22 10.56 5.13 7.04 7.7 18.06 7.7 33.05h-26.43l-.15-10.13c0-1.95-.48-3.49-1.43-4.64-.96-1.14-2.29-1.72-4-1.72-2.01 0-3.52.63-4.53 1.89-1.01 1.26-1.51 2.98-1.51 5.15 0 4.81 2.42 9.79 7.25 14.94l15.1 16.48c3.52 3.89 6.44 7.59 8.76 11.08 2.32 3.49 4.18 7.61 5.59 12.36 1.41 4.75 2.11 10.39 2.11 16.91 0 14.54-2.34 25.56-7.02 33.05-4.68 7.5-12.41 11.25-23.18 11.25-11.78 0-20.29-3.32-25.52-9.96zm60.89 7.23c-1.14-1.36-1.71-3.22-1.71-5.59v-13.66c0-2.94.52-5.16 1.55-6.66s2.65-2.24 4.85-2.24c1.92 0 3.47.6 4.64 1.79 1.17 1.2 1.76 2.92 1.76 5.17v5.11h-5.19v-4.38c0-.85-.09-1.44-.27-1.76-.18-.32-.5-.48-.94-.48-.47 0-.78.18-.96.55-.17.37-.26.91-.26 1.62v14.87c0 .78.1 1.35.3 1.71.2.36.5.53.91.53.81 0 1.21-.75 1.21-2.24v-5.35h5.25v5.59c0 4.97-2.19 7.45-6.58 7.45-1.9 0-3.42-.68-4.57-2.04zm12.88-27.88h8.01c1.27 0 2.26.33 2.96.98.7.65 1.17 1.57 1.41 2.76.24 1.19.36 2.7.36 4.54 0 1.68-.19 2.99-.58 3.93-.38.94-1.05 1.6-2 1.97.79.18 1.36.63 1.71 1.34.35.71.53 1.68.53 2.9l-.06 11.21h-5.1v-11.59c0-.83-.14-1.36-.42-1.59s-.8-.35-1.55-.35v13.52h-5.28v-29.64zm6.55 10.97c.73 0 1.09-.9 1.09-2.69 0-.78-.03-1.37-.09-1.76s-.17-.66-.33-.81-.39-.22-.7-.22h-1.21v5.49h1.24z"/><path fill="none" stroke-width="0" d="M10.76 10.56h62.48v127.63H10.76z"/><path class="cls-1" d="M79.74 148.87H0V1.37h79.74v147.5zM9.23 136.51h9.5v-33.06h-9.5v33.06zm11.93 0h47.03v-33.06H21.16v33.06zM33.08 46.6h35.1V14.23H29.39s-8.23 2.42-8.23 24.07 5.8 24.07 5.8 24.07h-5.8v33.64h47.03V62.37h-35.1s-3.69-.89-3.69-7.38 2.22-8.39 3.69-8.39z"/></svg>