<svg xmlns="http://www.w3.org/2000/svg" width="200" viewBox="0 0 150 150" height="200" version="1.0"><defs><clipPath id="a"><path d="M0 18.188h120V73H0zm0 0"/></clipPath><clipPath id="b"><path d="M30 78h120v54.188H30zm0 0"/></clipPath><clipPath id="c"><path d="M.031 17.02H120V72H.031zm0 0"/></clipPath><clipPath id="d"><path d="M.031 71H25v39H.031zm0 0"/></clipPath></defs><path fill="#fff" d="M92.184 41.008l-1.743 4.199h3.485zm-43.332 7.195a2.995 2.995 0 002.988-2.996v-6a2.995 2.995 0 00-2.988-2.996 2.995 2.995 0 00-2.989 2.996v6a2.995 2.995 0 002.989 2.996zm0 0"/><g clip-path="url(#a)"><path fill="#fff" d="M9.254 66.191H90s5.32 5.16 5.352 5.16a2.972 2.972 0 004.125 0l5.347-5.16h6.035c4.934 0 8.965-4.046 8.965-8.992V27.215c0-4.945-4.031-8.992-8.965-8.992H9.254c-4.93 0-8.965 4.047-8.965 8.992v29.984c0 4.946 4.035 8.992 8.965 8.992zm72.7-16.144l7.472-17.988a2.986 2.986 0 012.758-1.844 2.99 2.99 0 012.757 1.844l7.47 17.988a2.999 2.999 0 01-1.606 3.922 2.998 2.998 0 01-3.91-1.614l-.477-1.152h-8.469l-.48 1.152a2.978 2.978 0 01-3.906 1.614 3 3 0 01-1.61-3.922zM62.3 33.21a2.99 2.99 0 012.988-2.996 2.992 2.992 0 012.988 2.996v14.992h5.977a2.996 2.996 0 012.988 3 2.995 2.995 0 01-2.988 2.996h-8.965a2.992 2.992 0 01-2.988-2.996zm-22.414 5.996c0-4.957 4.02-8.992 8.965-8.992s8.964 4.035 8.964 8.992v6c0 4.957-4.02 8.992-8.964 8.992-4.946 0-8.965-4.035-8.965-8.992zM17.472 33.21a2.992 2.992 0 012.988-2.996 2.99 2.99 0 012.988 2.996v5.996h5.977V33.21a2.992 2.992 0 012.988-2.996 2.99 2.99 0 012.988 2.996v17.992a2.992 2.992 0 01-2.988 2.996 2.995 2.995 0 01-2.988-2.996v-5.996h-5.977v5.996a2.992 2.992 0 01-2.988 2.996 2.995 2.995 0 01-2.988-2.996zm0 0"/></g><g clip-path="url(#b)"><path fill="#fff" d="M140.746 84.184h-80.73l-5.36-5.16a2.972 2.972 0 00-4.136 0l-5.36 5.16h-6.02c-4.945 0-8.964 4.035-8.964 8.992v29.984c0 4.961 4.02 8.992 8.965 8.992h101.605c4.941 0 8.965-4.03 8.965-8.992V93.176c0-4.957-4.024-8.992-8.965-8.992zm-81.434 32.98a2.992 2.992 0 01-2.988 2.996 2.99 2.99 0 01-2.988-2.996v-5.996h-5.977v5.996a2.993 2.993 0 01-2.992 2.996 2.992 2.992 0 01-2.988-2.996V99.172a2.995 2.995 0 012.988-2.996 2.996 2.996 0 012.992 2.996v5.996h5.977v-5.996a2.992 2.992 0 012.988-2.996 2.995 2.995 0 012.989 2.996zm16.434-11.996a2.993 2.993 0 012.988 3c0 1.656-1.336 3-2.988 3H69.77v2.996h5.976a2.993 2.993 0 012.988 3 2.99 2.99 0 01-2.988 2.996h-8.965a2.992 2.992 0 01-2.988-2.996V99.172a2.995 2.995 0 012.988-2.996h8.965a2.992 2.992 0 012.988 2.996c0 1.656-1.336 3-2.988 3H69.77v2.996zm19.426 14.992h-8.965a2.99 2.99 0 01-2.988-2.996V99.172a2.992 2.992 0 012.988-2.996 2.992 2.992 0 012.988 2.996v14.992h5.977a2.993 2.993 0 012.988 3 2.99 2.99 0 01-2.988 2.996zm19.426 0h-8.965a2.993 2.993 0 01-2.992-2.996V99.172a2.996 2.996 0 012.992-2.996 2.995 2.995 0 012.988 2.996v14.992h5.977a2.996 2.996 0 012.988 3 2.992 2.992 0 01-2.988 2.996zm23.906-8.992c0 4.957-4.024 8.992-8.965 8.992-4.945 0-8.965-4.035-8.965-8.992v-6c0-4.957 4.02-8.992 8.965-8.992 4.941 0 8.965 4.035 8.965 8.992zm0 0"/></g><path fill="#fff" d="M129.54 102.172a2.995 2.995 0 00-2.99 2.996v6a2.995 2.995 0 002.99 2.996 2.995 2.995 0 002.987-2.996v-6a2.995 2.995 0 00-2.988-2.996zm-.75-56.965h2.987c3.297 0 5.98 2.688 5.98 5.996V67.95l-.878-.879a2.975 2.975 0 00-4.223 0 3.006 3.006 0 000 4.243l5.977 5.996a2.99 2.99 0 004.222 0l5.977-5.996a3.006 3.006 0 000-4.243 2.975 2.975 0 00-4.223 0l-.875.88V51.202c0-6.613-5.363-11.996-11.957-11.996h-2.988a2.996 2.996 0 00-2.988 3c0 1.656 1.34 3 2.988 3zM21.21 105.168h-2.987c-3.297 0-5.98-2.688-5.98-5.996V82.426l.878.879a2.975 2.975 0 004.223 0 3.006 3.006 0 000-4.243l-5.977-5.996a2.99 2.99 0 00-4.222 0l-5.977 5.996a3.006 3.006 0 000 4.243 2.975 2.975 0 004.223 0l.875-.88v16.747c0 6.613 5.363 11.996 11.957 11.996h2.988a2.996 2.996 0 002.988-3c0-1.656-1.34-3-2.988-3zM92.215 39.84l-1.742 4.195h3.484zm-43.332 7.195a2.998 2.998 0 002.988-3V38.04a2.995 2.995 0 00-2.988-2.996 2.997 2.997 0 00-2.988 2.996v5.996a3 3 0 002.988 3zm0 0"/><g clip-path="url(#c)"><path fill="#fff" d="M9.29 65.023h80.745s5.317 5.157 5.348 5.157a2.972 2.972 0 004.125 0l5.347-5.157h6.04c4.93 0 8.964-4.046 8.964-8.996v-29.98c0-4.95-4.035-8.996-8.964-8.996H9.289c-4.934 0-8.965 4.047-8.965 8.996v29.98c0 4.95 4.031 8.996 8.965 8.996zM81.987 48.88l7.469-17.988a2.994 2.994 0 012.758-1.848 2.99 2.99 0 012.758 1.848l7.472 17.988a3.002 3.002 0 01-1.61 3.922 2.992 2.992 0 01-3.905-1.614l-.48-1.156h-8.47l-.476 1.157a2.989 2.989 0 01-3.91 1.613 3 3 0 01-1.606-3.922zM62.332 32.043c0-1.656 1.336-3 2.988-3a2.996 2.996 0 012.989 3v14.992h5.976a2.99 2.99 0 012.988 2.996c0 1.657-1.335 3-2.988 3H65.32a2.993 2.993 0 01-2.988-3zm-22.414 5.996c0-4.96 4.023-8.996 8.965-8.996 4.945 0 8.965 4.035 8.965 8.996v5.996c0 4.961-4.02 8.996-8.965 8.996-4.942 0-8.965-4.035-8.965-8.996zm-22.41-5.996c0-1.656 1.336-3 2.988-3a2.996 2.996 0 012.988 3v5.996h5.977v-5.996c0-1.656 1.336-3 2.988-3a2.996 2.996 0 012.989 3v17.988c0 1.657-1.34 3-2.989 3a2.993 2.993 0 01-2.988-3v-5.996h-5.977v5.996c0 1.657-1.34 3-2.988 3a2.993 2.993 0 01-2.988-3zm0 0"/></g><path fill="#fff" d="M140.777 83.012h-80.73l-5.36-5.16a2.98 2.98 0 00-4.136 0l-5.36 5.16h-6.02c-4.944 0-8.964 4.035-8.964 8.996v29.984c0 4.957 4.02 8.992 8.965 8.992h101.605c4.942 0 8.965-4.035 8.965-8.992V92.008c0-4.961-4.023-8.996-8.965-8.996zm-81.433 32.98c0 1.656-1.34 3-2.989 3a2.993 2.993 0 01-2.988-3v-5.996h-5.976v5.996c0 1.656-1.34 3-2.989 3a2.993 2.993 0 01-2.988-3V98.004a2.99 2.99 0 012.988-2.996 2.992 2.992 0 012.989 2.996V104h5.976v-5.996a2.99 2.99 0 012.988-2.996 2.992 2.992 0 012.989 2.996zM75.78 104a2.996 2.996 0 012.989 3 2.992 2.992 0 01-2.989 2.996h-5.976v3h5.976a2.995 2.995 0 012.989 2.996c0 1.656-1.34 3-2.989 3h-8.969a2.996 2.996 0 01-2.988-3V98.004a2.992 2.992 0 012.989-2.996h8.968a2.992 2.992 0 012.989 2.996c0 1.656-1.34 3-2.989 3h-5.976V104zm19.422 14.992h-8.965a2.993 2.993 0 01-2.988-3V98.004a2.99 2.99 0 012.988-2.996 2.99 2.99 0 012.989 2.996v14.992h5.976a2.992 2.992 0 012.988 2.996c0 1.656-1.336 3-2.988 3zm19.426 0h-8.965a2.993 2.993 0 01-2.988-3V98.004a2.99 2.99 0 012.988-2.996 2.99 2.99 0 012.988 2.996v14.992h5.977a2.992 2.992 0 012.988 2.996c0 1.656-1.336 3-2.988 3zm23.906-8.996c0 4.961-4.02 8.996-8.965 8.996s-8.965-4.035-8.965-8.996V104c0-4.96 4.02-8.992 8.965-8.992 4.946 0 8.965 4.031 8.965 8.992zm0 0"/><path fill="#fff" d="M129.57 101.004a2.995 2.995 0 00-2.988 2.996v5.996c0 1.652 1.34 3 2.988 3a2.998 2.998 0 002.989-3V104a2.995 2.995 0 00-2.989-2.996zm-.746-56.969h2.988c3.293 0 5.977 2.692 5.977 5.996v16.75l-.875-.879a2.98 2.98 0 00-4.226 0 3.001 3.001 0 000 4.239l5.976 5.996a2.987 2.987 0 004.227 0l5.976-5.996a3.001 3.001 0 000-4.239 2.98 2.98 0 00-4.226 0l-.875.88v-16.75c0-6.614-5.364-11.993-11.953-11.993h-2.989a2.993 2.993 0 00-2.988 3 2.99 2.99 0 002.988 2.996zm0 0"/><g clip-path="url(#d)"><path fill="#fff" d="M21.242 104h-2.988c-3.297 0-5.977-2.688-5.977-5.996V81.258l.875.879a2.987 2.987 0 004.227 0 3.006 3.006 0 000-4.242l-5.977-5.997a2.994 2.994 0 00-4.226 0l-5.977 5.997a3.006 3.006 0 000 4.242 2.987 2.987 0 004.227 0l.875-.88v16.747c0 6.613 5.36 11.992 11.953 11.992h2.988A2.99 2.99 0 0024.23 107c0-1.656-1.335-3-2.988-3zm0 0"/></g></svg>